<?xml version="1.0" encoding="utf-8"?>
<!-- Generator: Adobe Illustrator 18.0.0, SVG Export Plug-In . SVG Version: 6.00 Build 0)  -->
<!DOCTYPE svg PUBLIC "-//W3C//DTD SVG 1.1//EN" "http://www.w3.org/Graphics/SVG/1.1/DTD/svg11.dtd">
<svg version="1.1" id="Layer_1" xmlns="http://www.w3.org/2000/svg" xmlns:xlink="http://www.w3.org/1999/xlink" x="0px" y="0px"
	 viewBox="0 0 600 350" enable-background="new 0 0 600 350" xml:space="preserve">
<title>Gnuplot</title>
<desc>Produced by GNUPLOT 5.0 patchlevel 1</desc>
<rect y="0" fill="none" width="600" height="350"/>
<g>
	<path fill="none" stroke="#000000" d="M87.6,288h9.7 M572.6,288h-9.7"/>
	<g transform="translate(78.5,292.9)">
		<text transform="matrix(1 0 0 1 -7.23 -3.062109e-05)" font-family="'ArialMT'" font-size="13">0</text>
	</g>
</g>
<g>
	<path fill="none" stroke="#000000" d="M87.6,239h9.7 M572.6,239h-9.7"/>
	<g transform="translate(78.5,243.9)">
		<text transform="matrix(1 0 0 1 -25.3018 -3.062109e-05)" font-family="'ArialMT'" font-size="13">0.01</text>
	</g>
</g>
<g>
	<path fill="none" stroke="#000000" d="M87.6,189.9h9.7 M572.6,189.9h-9.7"/>
	<g transform="translate(78.5,194.8)">
		<text transform="matrix(1 0 0 1 -25.3018 -7.624218e-05)" font-family="'ArialMT'" font-size="13">0.02</text>
	</g>
</g>
<g>
	<path fill="none" stroke="#000000" d="M87.6,140.9h9.7 M572.6,140.9h-9.7"/>
	<g transform="translate(78.5,145.8)">
		<text transform="matrix(1 0 0 1 -25.3018 -1.520703e-05)" font-family="'ArialMT'" font-size="13">0.03</text>
	</g>
</g>
<g>
	<path fill="none" stroke="#000000" d="M87.6,91.9h9.7 M572.6,91.9h-9.7"/>
	<g transform="translate(78.5,96.8)">
		<text transform="matrix(1 0 0 1 -25.3018 -1.520703e-05)" font-family="'ArialMT'" font-size="13">0.04</text>
	</g>
</g>
<g>
	<path fill="none" stroke="#000000" d="M87.6,42.8h9.7 M572.6,42.8h-9.7"/>
	<g transform="translate(78.5,47.7)">
		<text transform="matrix(1 0 0 1 -25.3018 -1.108633e-04)" font-family="'ArialMT'" font-size="13">0.05</text>
	</g>
</g>
<g>
	<path fill="none" stroke="#000000" d="M87.6,288v-9.7 M87.6,18.3V28"/>
	<g transform="translate(87.6,312.3)">
		<text transform="matrix(1 0 0 1 -3.615 -6.124219e-05)" font-family="'ArialMT'" font-size="13">0</text>
	</g>
</g>
<g>
	<path fill="none" stroke="#000000" d="M133.8,288v-9.7 M133.8,18.3V28"/>
	<g transform="translate(133.8,312.3)">
		<text transform="matrix(1 0 0 1 -7.23 -6.124219e-05)" font-family="'ArialMT'" font-size="13">10</text>
	</g>
</g>
<g>
	<path fill="none" stroke="#000000" d="M180,288v-9.7 M180,18.3V28"/>
	<g transform="translate(180.0,312.3)">
		<text transform="matrix(1 0 0 1 -7.23 -6.124219e-05)" font-family="'ArialMT'" font-size="13">20</text>
	</g>
</g>
<g>
	<path fill="none" stroke="#000000" d="M226.2,288v-9.7 M226.2,18.3V28"/>
	<g transform="translate(226.2,312.3)">
		<text transform="matrix(1 0 0 1 -7.23 -6.124219e-05)" font-family="'ArialMT'" font-size="13">30</text>
	</g>
</g>
<g>
	<path fill="none" stroke="#000000" d="M272.4,288v-9.7 M272.4,18.3V28"/>
	<g transform="translate(272.4,312.3)">
		<text transform="matrix(1 0 0 1 -7.23 -6.124219e-05)" font-family="'ArialMT'" font-size="13">40</text>
	</g>
</g>
<g>
	<path fill="none" stroke="#000000" d="M318.6,288v-9.7 M318.6,18.3V28"/>
	<g transform="translate(318.6,312.3)">
		<text transform="matrix(1 0 0 1 -7.23 -6.124219e-05)" font-family="'ArialMT'" font-size="13">50</text>
	</g>
</g>
<g>
	<path fill="none" stroke="#000000" d="M364.7,288v-9.7 M364.7,18.3V28"/>
	<g transform="translate(364.7,312.3)">
		<text transform="matrix(1 0 0 1 -7.23 -6.124219e-05)" font-family="'ArialMT'" font-size="13">60</text>
	</g>
</g>
<g>
	<path fill="none" stroke="#000000" d="M410.9,288v-9.7 M410.9,18.3V28"/>
	<g transform="translate(410.9,312.3)">
		<text transform="matrix(1 0 0 1 -7.2299 -6.124219e-05)" font-family="'ArialMT'" font-size="13">70</text>
	</g>
</g>
<g>
	<path fill="none" stroke="#000000" d="M457.1,288v-9.7 M457.1,18.3V28"/>
	<g transform="translate(457.1,312.3)">
		<text transform="matrix(1 0 0 1 -7.23 -6.124219e-05)" font-family="'ArialMT'" font-size="13">80</text>
	</g>
</g>
<g>
	<path fill="none" stroke="#000000" d="M503.3,288v-9.7 M503.3,18.3V28"/>
	<g transform="translate(503.3,312.3)">
		<text transform="matrix(1 0 0 1 -7.23 -6.124219e-05)" font-family="'ArialMT'" font-size="13">90</text>
	</g>
</g>
<g>
	<path fill="none" stroke="#000000" d="M549.5,288v-9.7 M549.5,18.3V28"/>
	<g transform="translate(549.5,312.3)">
		<text transform="matrix(1 0 0 1 -10.845 -6.124219e-05)" font-family="'ArialMT'" font-size="13">100</text>
	</g>
</g>
<g>
	<path fill="none" stroke="#000000" d="M87.6,18.3V288h485V18.3H87.6z"/>
</g>
<g>
	<g transform="translate(19.1,153.2) rotate(270)">
		<text transform="matrix(1 0 0 1 -44.434 -2.441406e-05)" font-family="'ArialMT'" font-size="13">Čas výpočtu [s]</text>
	</g>
</g>
<g>
	<g transform="translate(330.1,341.4)">
		<text transform="matrix(1 0 0 1 -44.0718 -3.062109e-05)" font-family="'ArialMT'" font-size="13">Počet prvků (n)</text>
	</g>
</g>
<g id="gnuplot_plot_1">
	<title>Odhad</title>
	<g>
		<g transform="translate(287.8,42.6)">
			<text transform="matrix(1 0 0 1 -89.0349 20.0011)" font-family="'ArialMT'" font-size="13">Odhad</text>
		</g>
	</g>
	<g>
		<path fill="none" stroke="#9400D3" d="M246.9,57.7H293 M110.7,284.3l4.4-1.2l4.5-1.3l4.4-1.2l4.4-1.1l4.5-1l4.4-0.9l4.4-0.9
			l4.5-0.7l4.4-0.8l4.4-0.8l4.5-0.9l4.4-0.9l4.4-1.1l4.4-1.3l4.5-1.3l4.4-1.5l4.4-1.7l4.5-1.7l4.4-1.6l4.4-1.6l4.5-1.3l4.4-1.1
			l4.4-1.1l4.5-1l4.4-1.2l4.4-1.4l4.5-1.8l4.4-2l4.4-2.1l4.5-2l4.4-1.9l4.4-1.4l4.5-1.2l4.4-1.1l4.4-1.2l4.5-1.5l4.4-2l4.4-2.4
			l4.5-2.7l4.4-2.7l4.4-2.6l4.5-2.4l4.4-1.9l4.4-1.6l4.5-1.6l4.4-1.6l4.4-1.7l4.5-2l4.4-2.2l4.4-2.1l4.4-2l4.5-1.7l4.4-1.2l4.4-0.8
			l4.5-0.7l4.4-0.7l4.4-0.9l4.5-1.1l4.4-1.7l4.4-2.3l4.5-3l4.4-4l4.4-5.1l4.5-5.9l4.4-6.2l4.4-5.9l4.5-4.9l4.4-3.4l4.4-1.8l4.5-0.7
			l4.4-0.6l4.4-1.1l4.5-2.6l4.4-4.4l4.4-5.8l4.5-6.5l4.4-6.4l4.4-5.5l4.5-4.1l4.4-2.8l4.4-1.9l4.5-1.5l4.4-1.4l4.4-1.7l4.5-2.4
			l4.4-2.9l4.4-3.8l4.4-4.5l4.5-5.4l4.4-6.2L514,76l4.5-6.5l4.4-6.1l4.4-5.3l4.5-4.3l4.4-3.4l4.4-2.8l4.5-2.4l4.4-2.1"/>
	</g>
</g>
<title>Naměřené výsledky</title>
<g>
	<g transform="translate(287.8,62.0)">
		<text transform="matrix(1 0 0 1 -164.1594 20.0012)" font-family="'ArialMT'" font-size="13">Naměřené výsledky</text>
	</g>
</g>
<g>
	<g transform="translate(110.7,284.3) scale(4.85)">
		<path id="gpPt1" fill="none" stroke="#009E73" stroke-width="2" d="M105.8,279.4l9.7,9.7 M115.5,279.4l-9.7,9.7"/>
	</g>
	<g transform="translate(133.8,278.3) scale(4.85)">
		<path id="gpPt1_1_" fill="none" stroke="#009E73" stroke-width="2" d="M128.9,273.4l9.7,9.7 M138.7,273.4l-9.7,9.7"/>
	</g>
	<g transform="translate(156.9,274.1) scale(4.85)">
		<path id="gpPt1_2_" fill="none" stroke="#009E73" stroke-width="2" d="M152,269.2l9.7,9.7 M161.8,269.2l-9.7,9.7"/>
	</g>
	<g transform="translate(180.0,267.9) scale(4.85)">
		<path id="gpPt1_3_" fill="none" stroke="#009E73" stroke-width="2" d="M175.1,263l9.7,9.7 M184.9,263l-9.7,9.7"/>
	</g>
	<g transform="translate(203.1,259.7) scale(4.85)">
		<path id="gpPt1_4_" fill="none" stroke="#009E73" stroke-width="2" d="M198.2,254.8l9.7,9.7 M208,254.8l-9.7,9.7"/>
	</g>
	<g transform="translate(226.2,253.6) scale(4.85)">
		<path id="gpPt1_5_" fill="none" stroke="#009E73" stroke-width="2" d="M221.3,248.7l9.7,9.7 M231.1,248.7l-9.7,9.7"/>
	</g>
	<g transform="translate(249.3,243.5) scale(4.85)">
		<path id="gpPt1_6_" fill="none" stroke="#009E73" stroke-width="2" d="M244.4,238.6l9.7,9.7 M254.2,238.6l-9.7,9.7"/>
	</g>
	<g transform="translate(272.4,236.6) scale(4.85)">
		<path id="gpPt1_7_" fill="none" stroke="#009E73" stroke-width="2" d="M267.5,231.7l9.7,9.7 M277.2,231.7l-9.7,9.7"/>
	</g>
	<g transform="translate(295.5,223.4) scale(4.85)">
		<path id="gpPt1_8_" fill="none" stroke="#009E73" stroke-width="2" d="M290.6,218.5l9.7,9.7 M300.4,218.5l-9.7,9.7"/>
	</g>
	<g transform="translate(318.6,214.5) scale(4.85)">
		<path id="gpPt1_9_" fill="none" stroke="#009E73" stroke-width="2" d="M313.8,209.6l9.7,9.7 M323.5,209.6l-9.7,9.7"/>
	</g>
	<g transform="translate(341.6,204.2) scale(4.85)">
		<path id="gpPt1_10_" fill="none" stroke="#009E73" stroke-width="2" d="M336.8,199.3l9.7,9.7 M346.5,199.3l-9.7,9.7"/>
	</g>
	<g transform="translate(364.7,199.7) scale(4.85)">
		<path id="gpPt1_11_" fill="none" stroke="#009E73" stroke-width="2" d="M359.9,194.8l9.7,9.7 M369.6,194.8l-9.7,9.7"/>
	</g>
	<g transform="translate(387.8,185.3) scale(4.85)">
		<path id="gpPt1_12_" fill="none" stroke="#009E73" stroke-width="2" d="M382.9,180.4l9.7,9.7 M392.6,180.4l-9.7,9.7"/>
	</g>
	<g transform="translate(410.9,157.2) scale(4.85)">
		<path id="gpPt1_13_" fill="none" stroke="#009E73" stroke-width="2" d="M406,152.3l9.7,9.7 M415.8,152.3L406,162"/>
	</g>
	<g transform="translate(434.0,149.9) scale(4.85)">
		<path id="gpPt1_14_" fill="none" stroke="#009E73" stroke-width="2" d="M429.1,145l9.7,9.7 M438.9,145l-9.7,9.7"/>
	</g>
	<g transform="translate(457.1,120.3) scale(4.85)">
		<path id="gpPt1_15_" fill="none" stroke="#009E73" stroke-width="2" d="M452.2,115.4l9.7,9.7 M462,115.4l-9.7,9.7"/>
	</g>
	<g transform="translate(480.2,108.8) scale(4.85)">
		<path id="gpPt1_16_" fill="none" stroke="#009E73" stroke-width="2" d="M475.4,103.9l9.7,9.7 M485.1,103.9l-9.7,9.7"/>
	</g>
	<g transform="translate(503.3,91.1) scale(4.85)">
		<path id="gpPt1_17_" fill="none" stroke="#009E73" stroke-width="2" d="M498.4,86.2l9.7,9.7 M508.1,86.2l-9.7,9.7"/>
	</g>
	<g transform="translate(526.4,59.1) scale(4.85)">
		<path id="gpPt1_18_" fill="none" stroke="#009E73" stroke-width="2" d="M521.6,54.2l9.7,9.7 M531.2,54.2l-9.7,9.7"/>
	</g>
	<g transform="translate(549.5,43.1) scale(4.85)">
		<path id="gpPt1_19_" fill="none" stroke="#009E73" stroke-width="2" d="M544.7,38.2l9.7,9.7 M554.3,38.2l-9.7,9.7"/>
	</g>
	<g transform="translate(319.9,57.1) scale(4.85)">
		<path id="gpPt1_20_" fill="none" stroke="#009E73" stroke-width="2" d="M265,72.3l9.7,9.7 M274.7,72.3L265,82"/>
	</g>
</g>
<title>Lineární odhad</title>
<g>
	<g transform="translate(287.8,81.4)">
		<text transform="matrix(1 0 0 1 -136.7439 20.0012)" font-family="'ArialMT'" font-size="13">Lineární odhad</text>
	</g>
</g>
<g>
	<path fill="none" stroke="#56B4E9" stroke-dasharray="10,10" d="M246.9,96.5H293 M112.1,280.2l4.9-1.6l4.9-1.5l4.9-1.6l4.9-1.5
		l4.9-1.6l4.9-1.6l4.9-1.5l4.9-1.6l4.9-1.5l4.9-1.6l4.9-1.6l4.9-1.5l4.9-1.6l4.9-1.5l4.9-1.6l4.9-1.6l4.9-1.5l4.9-1.6l4.9-1.5
		l4.9-1.6l4.9-1.6l4.9-1.5l4.9-1.6l4.9-1.5l4.9-1.6l4.9-1.6l4.9-1.5l4.9-1.6l4.9-1.5l4.9-1.6l4.9-1.6l4.9-1.5l4.9-1.6l4.9-1.5
		l4.9-1.6l4.9-1.6l4.9-1.5l4.9-1.6l4.9-1.6l4.9-1.5l4.9-1.6l4.9-1.5l4.9-1.6l4.9-1.6l4.8-1.5l4.9-1.6l4.9-1.5l4.9-1.6l4.9-1.6
		l4.9-1.5l4.9-1.6l4.9-1.5l4.9-1.6l4.9-1.6l4.9-1.5l4.9-1.6l4.9-1.5l4.9-1.6l4.9-1.6l4.9-1.5l4.9-1.6l4.9-1.5l4.9-1.6l4.9-1.6
		l4.9-1.5l4.9-1.6l4.9-1.5l4.9-1.6l4.9-1.6l4.9-1.5l4.9-1.6l4.9-1.5l4.9-1.6l4.9-1.6l4.9-1.5l4.9-1.6l4.9-1.5l4.9-1.6l4.9-1.6
		l4.9-1.5l4.9-1.6l4.9-1.5l4.9-1.6l4.9-1.6l4.9-1.5l4.9-1.6l4.9-1.5l4.9-1.6l4.9-1.6"/>
</g>
<g>
	<path fill="none" stroke="#000000" d="M87.6,18.3V288h485V18.3H87.6z"/>
</g>
</svg>
